<svg width="24" height="20" viewBox="0 0 24 20" fill="none" xmlns="http://www.w3.org/2000/svg">
<path fill-rule="evenodd" clip-rule="evenodd" d="M4 2H20C20.1461 2 20.2886 2.01567 20.4258 2.04543L12.0001 9.06526L3.57431 2.0454C3.71149 2.01566 3.85391 2 4 2ZM2.08829 3.41051C2.0309 3.59686 2 3.79483 2 4.00001V15.9032C2 17.0078 2.89543 17.9032 4 17.9032H20C21.1046 17.9032 22 17.0078 22 15.9032V4C22 3.79486 21.9691 3.59694 21.9117 3.41062L12.6402 11.1351L12.0001 11.6684L11.36 11.1351L2.08829 3.41051ZM0 4.00001C0 1.79087 1.79086 0 4 0H20C22.2091 0 24 1.79086 24 4V15.9032C24 18.1124 22.2091 19.9032 20 19.9032H4C1.79086 19.9032 0 18.1124 0 15.9032V4.00001Z" fill="black" fill-opacity="0.3"/>
</svg>
