<svg width="41" height="46" viewBox="0 0 41 46" fill="none" xmlns="http://www.w3.org/2000/svg">
<path d="M39 4.49837C37.1616 1.16722 33.4384 1.16722 31.6 4.49836L31.6 4.50164C29.7616 7.83279 26.0384 7.83279 24.2 4.50164L24.2 4.49836C22.3616 1.16721 18.6359 1.16721 16.8 4.49836C14.9616 7.82951 11.2359 7.82951 9.4 4.49836C7.56163 1.16721 3.83837 1.16721 2 4.49836" stroke="#31A7BF" stroke-width="3" stroke-miterlimit="10"/>
<path d="M39 14.4984C37.1616 11.1672 33.4384 11.1672 31.6 14.4984L31.6 14.5016C29.7616 17.8328 26.0384 17.8328 24.2 14.5016L24.2 14.4984C22.3616 11.1672 18.6359 11.1672 16.8 14.4984C14.9616 17.8295 11.2359 17.8295 9.4 14.4984C7.56163 11.1672 3.83837 11.1672 2 14.4984" stroke="#31A7BF" stroke-width="3" stroke-miterlimit="10"/>
<path d="M39 24.9987C37.1616 22.3338 33.4384 22.3338 31.6 24.9987L31.6 25.0013C29.7616 27.6662 26.0384 27.6662 24.2 25.0013L24.2 24.9987C22.3616 22.3338 18.6359 22.3338 16.8 24.9987C14.9616 27.6636 11.2359 27.6636 9.4 24.9987C7.56163 22.3338 3.83837 22.3338 2 24.9987" stroke="#31A7BF" stroke-width="3" stroke-miterlimit="10"/>
<path d="M13.648 45.0001H12.16V40.8721L12.232 38.5561H12.208L10.012 45.0001H8.65598L6.47198 38.5561H6.44798L6.53198 40.8721V45.0001H5.03198V37.0801H7.43198L8.85998 41.4001L9.36398 43.1881H9.38798L9.90398 41.4121L11.32 37.0801H13.648V45.0001Z" fill="#31A7BF"/>
<path d="M21.0735 41.9761C21.0735 42.2001 21.0575 42.4161 21.0255 42.6241H16.7775C16.9455 43.4721 17.4455 43.8961 18.2775 43.8961C18.6215 43.8961 18.9055 43.8321 19.1295 43.7041C19.3535 43.5761 19.5095 43.3921 19.5975 43.1521L20.9415 43.6441C20.7495 44.1241 20.4255 44.4921 19.9695 44.7481C19.5215 44.9961 18.9575 45.1201 18.2775 45.1201C17.2855 45.1201 16.5175 44.8481 15.9735 44.3041C15.4295 43.7521 15.1575 42.9841 15.1575 42.0001C15.1575 41.0161 15.4215 40.2521 15.9495 39.7081C16.4775 39.1561 17.2215 38.8801 18.1815 38.8801C19.1095 38.8801 19.8215 39.1481 20.3175 39.6841C20.8215 40.2201 21.0735 40.9841 21.0735 41.9761ZM18.1695 40.0921C17.7695 40.0921 17.4495 40.2081 17.2095 40.4401C16.9775 40.6721 16.8295 41.0161 16.7655 41.4721H19.5615C19.4975 41.0241 19.3455 40.6841 19.1055 40.4521C18.8655 40.2121 18.5535 40.0921 18.1695 40.0921Z" fill="#31A7BF"/>
<path d="M26.0298 38.8801C26.6778 38.8801 27.1978 39.0681 27.5898 39.4441C27.9898 39.8201 28.1898 40.3601 28.1898 41.0641V45.0001H26.5458V41.5441C26.5458 40.6321 26.1898 40.1761 25.4778 40.1761C25.0938 40.1761 24.7658 40.3121 24.4938 40.5841C24.2298 40.8561 24.0978 41.2721 24.0978 41.8321V45.0001H22.4538V39.0001H23.9298L23.9778 40.0681C24.1778 39.6761 24.4538 39.3801 24.8058 39.1801C25.1578 38.9801 25.5658 38.8801 26.0298 38.8801Z" fill="#31A7BF"/>
<path d="M35.5835 39.0001V45.0001H34.1195L34.0595 43.9681C33.6755 44.7361 32.9755 45.1201 31.9595 45.1201C31.3115 45.1201 30.7955 44.9481 30.4115 44.6041C30.0355 44.2521 29.8475 43.7081 29.8475 42.9721V39.0001H31.4915V42.5521C31.4915 43.0161 31.5795 43.3441 31.7555 43.5361C31.9315 43.7281 32.1915 43.8241 32.5355 43.8241C32.9515 43.8241 33.2875 43.6921 33.5435 43.4281C33.8075 43.1561 33.9395 42.7521 33.9395 42.2161V39.0001H35.5835Z" fill="#31A7BF"/>
</svg>
